<svg width="609" height="481" viewBox="0 0 609 481" fill="none" xmlns="http://www.w3.org/2000/svg">
<g filter="url(#filter0_d)">
<rect x="9.06708" y="185.38" width="338.069" height="338.069" rx="25" transform="rotate(-30 9.06708 185.38)" fill="#F0F0F0"/>
<path d="M21.5671 207.031C14.6635 195.073 18.7604 179.783 30.7177 172.88L280.192 28.8456C292.15 21.942 307.44 26.0389 314.343 37.9962L344.587 90.3809L51.8114 259.415L21.5671 207.031Z" fill="#EE5C9C"/>
<circle cx="79.83" cy="165.464" r="10.3623" transform="rotate(-30 79.83 165.464)" fill="#3E4347"/>
<circle cx="121.895" cy="141.178" r="10.3623" transform="rotate(-30 121.895 141.178)" fill="#3E4347"/>
<circle cx="164.522" cy="116.567" r="10.3623" transform="rotate(-30 164.522 116.567)" fill="#3E4347"/>
<circle cx="206.587" cy="92.2807" r="10.3623" transform="rotate(-30 206.587 92.2807)" fill="#3E4347"/>
<circle cx="249.214" cy="67.6704" r="10.3623" transform="rotate(-30 249.214 67.6704)" fill="#3E4347"/>
<rect x="55.5264" y="137.617" width="5.18113" height="40.1537" rx="2.59056" transform="rotate(-30 55.5264 137.617)" fill="url(#paint0_linear)"/>
<rect x="62.8178" y="133.408" width="5.18113" height="40.1537" rx="2.59056" transform="rotate(-30 62.8178 133.408)" fill="url(#paint1_linear)"/>
<rect x="98.1528" y="113.007" width="5.18113" height="40.1537" rx="2.59056" transform="rotate(-30 98.1528 113.007)" fill="url(#paint2_linear)"/>
<rect x="105.444" y="108.797" width="5.18113" height="40.1537" rx="2.59056" transform="rotate(-30 105.444 108.797)" fill="url(#paint3_linear)"/>
<rect x="140.218" y="88.7203" width="5.18113" height="40.1537" rx="2.59056" transform="rotate(-30 140.218 88.7203)" fill="url(#paint4_linear)"/>
<rect x="147.51" y="84.5106" width="5.18113" height="40.1537" rx="2.59056" transform="rotate(-30 147.51 84.5106)" fill="url(#paint5_linear)"/>
<rect x="182.845" y="64.11" width="5.18113" height="40.1537" rx="2.59056" transform="rotate(-30 182.845 64.11)" fill="url(#paint6_linear)"/>
<rect x="190.136" y="59.9003" width="5.18113" height="40.1537" rx="2.59056" transform="rotate(-30 190.136 59.9003)" fill="url(#paint7_linear)"/>
<rect x="224.91" y="39.8235" width="5.18113" height="40.1537" rx="2.59056" transform="rotate(-30 224.91 39.8235)" fill="url(#paint8_linear)"/>
<rect x="232.202" y="35.6137" width="5.18113" height="40.1537" rx="2.59056" transform="rotate(-30 232.202 35.6137)" fill="url(#paint9_linear)"/>
</g>
<rect x="96.7574" y="268.614" width="38.2108" height="14.8957" rx="5" transform="rotate(-30 96.7574 268.614)" fill="#C4C4C4"/>
<rect x="146.675" y="239.794" width="38.2108" height="14.8957" rx="5" transform="rotate(-30 146.675 239.794)" fill="#C4C4C4"/>
<rect x="196.593" y="210.974" width="38.2108" height="14.8957" rx="5" transform="rotate(-30 196.593 210.974)" fill="#C4C4C4"/>
<rect x="246.51" y="182.154" width="38.2108" height="14.8957" rx="5" transform="rotate(-30 246.51 182.154)" fill="#C4C4C4"/>
<rect x="296.428" y="153.334" width="38.2108" height="14.8957" rx="5" transform="rotate(-30 296.428 153.334)" fill="#C4C4C4"/>
<rect x="120.396" y="309.558" width="38.2108" height="14.8957" rx="5" transform="rotate(-30 120.396 309.558)" fill="#C4C4C4"/>
<rect x="170.314" y="280.738" width="38.2108" height="14.8957" rx="5" transform="rotate(-30 170.314 280.738)" fill="#C4C4C4"/>
<rect x="220.231" y="251.918" width="38.2108" height="14.8957" rx="5" transform="rotate(-30 220.231 251.918)" fill="#C4C4C4"/>
<rect x="270.149" y="223.098" width="38.2108" height="14.8957" rx="5" transform="rotate(-30 270.149 223.098)" fill="#C4C4C4"/>
<rect x="320.067" y="194.278" width="38.2108" height="14.8957" rx="5" transform="rotate(-30 320.067 194.278)" fill="#C4C4C4"/>
<rect x="144.035" y="350.502" width="38.2108" height="14.8957" rx="5" transform="rotate(-30 144.035 350.502)" fill="#C4C4C4"/>
<rect x="193.953" y="321.681" width="38.2108" height="14.8957" rx="5" transform="rotate(-30 193.953 321.681)" fill="#C4C4C4"/>
<rect x="243.87" y="292.861" width="38.2108" height="14.8957" rx="5" transform="rotate(-30 243.87 292.861)" fill="#C4C4C4"/>
<rect x="293.788" y="264.041" width="38.2108" height="14.8957" rx="5" transform="rotate(-30 293.788 264.041)" fill="#C4C4C4"/>
<rect x="343.706" y="235.221" width="38.2108" height="14.8957" rx="5" transform="rotate(-30 343.706 235.221)" fill="#C4C4C4"/>
<rect x="167.674" y="391.445" width="38.2108" height="14.8957" rx="5" transform="rotate(-30 167.674 391.445)" fill="#C4C4C4"/>
<rect x="217.592" y="362.625" width="38.2108" height="14.8957" rx="5" transform="rotate(-30 217.592 362.625)" fill="#C4C4C4"/>
<rect x="267.509" y="333.805" width="38.2108" height="14.8957" rx="5" transform="rotate(-30 267.509 333.805)" fill="#C4C4C4"/>
<rect x="317.427" y="304.985" width="38.2108" height="14.8957" rx="5" transform="rotate(-30 317.427 304.985)" fill="#C4C4C4"/>
<rect x="367.345" y="276.165" width="38.2108" height="14.8957" rx="5" transform="rotate(-30 367.345 276.165)" fill="#C4C4C4"/>
<g filter="url(#filter1_d)">
<rect x="319.512" y="26.8104" width="295.366" height="382.882" transform="rotate(14.8597 319.512 26.8104)" fill="#F0F0F0"/>
</g>
<path d="M394.051 99.1631C395.56 99.9357 396.604 100.958 397.186 102.229C397.796 103.484 397.886 104.923 397.455 106.547C396.902 108.635 395.697 110.041 393.841 110.765C392.014 111.472 389.593 111.426 386.578 110.626L375.373 107.653L381.836 83.2957L392.344 86.0839C395.058 86.804 397.013 87.9062 398.209 89.3904C399.427 90.8807 399.772 92.6234 399.242 94.6183C398.885 95.9638 398.244 97.0228 397.319 97.7954C396.424 98.551 395.334 99.0069 394.051 99.1631ZM383.848 86.1015L381.503 94.9397L389.262 96.9985C391.234 97.5217 392.852 97.5536 394.116 97.0945C395.386 96.6121 396.212 95.6518 396.594 94.2135C396.975 92.7753 396.731 91.5434 395.861 90.518C394.997 89.4694 393.579 88.6835 391.607 88.1603L383.848 86.1015ZM387.106 108.494C389.287 109.073 391.032 109.138 392.343 108.692C393.653 108.245 394.517 107.232 394.936 105.655C395.742 102.616 393.942 100.512 389.534 99.3426L380.94 97.0622L378.511 106.214L387.106 108.494ZM412.198 117.647C409.786 117.007 407.735 115.892 406.047 114.302C404.387 112.694 403.25 110.803 402.635 108.629C402.044 106.461 402.059 104.205 402.68 101.862C403.302 99.5193 404.407 97.553 405.996 95.9633C407.608 94.3798 409.53 93.3129 411.762 92.7629C414.023 92.1958 416.359 92.2323 418.772 92.8724C421.184 93.5125 423.212 94.6215 424.854 96.1994C426.52 97.7835 427.657 99.6744 428.265 101.872C428.88 104.046 428.877 106.305 428.255 108.648C427.634 110.991 426.514 112.966 424.896 114.573C423.284 116.156 421.362 117.223 419.13 117.773C416.922 118.329 414.611 118.287 412.198 117.647ZM412.808 115.351C414.733 115.861 416.587 115.894 418.369 115.448C420.157 114.979 421.695 114.096 422.983 112.799C424.276 111.478 425.176 109.867 425.68 107.965C426.185 106.063 426.2 104.229 425.725 102.464C425.255 100.676 424.358 99.1467 423.031 97.876C421.711 96.5821 420.088 95.6798 418.163 95.1689C416.237 94.6581 414.369 94.6341 412.558 95.0971C410.776 95.543 409.226 96.4231 407.909 97.7372C406.621 99.0344 405.725 100.634 405.22 102.536C404.716 104.438 404.698 106.284 405.167 108.072C405.665 109.843 406.575 111.375 407.895 112.669C409.245 113.946 410.882 114.84 412.808 115.351ZM437.258 98.0008L439.833 98.6839L433.961 120.814L447.601 124.433L447.01 126.66L430.796 122.358L437.258 98.0008ZM469.101 130.138L468.51 132.365L451.286 127.795L457.748 103.437L474.451 107.869L473.86 110.096L459.732 106.348L457.434 115.012L470.03 118.354L469.448 120.546L456.852 117.204L454.452 126.251L469.101 130.138ZM485.166 113.096L476.607 110.825L477.198 108.598L496.892 113.823L496.301 116.05L487.741 113.779L481.87 135.909L479.295 135.226L485.166 113.096ZM504.795 142.216C502.383 141.575 500.332 140.46 498.644 138.87C496.984 137.263 495.847 135.372 495.232 133.198C494.641 131.029 494.655 128.774 495.277 126.431C495.899 124.088 497.004 122.121 498.593 120.532C500.205 118.948 502.127 117.881 504.358 117.331C506.619 116.764 508.956 116.801 511.369 117.441C513.781 118.081 515.809 119.19 517.451 120.768C519.116 122.352 520.254 124.243 520.862 126.44C521.477 128.615 521.474 130.874 520.852 133.216C520.231 135.559 519.111 137.534 517.492 139.141C515.88 140.725 513.959 141.791 511.727 142.341C509.518 142.898 507.208 142.856 504.795 142.216ZM505.405 139.919C507.33 140.43 509.184 140.462 510.966 140.016C512.754 139.547 514.292 138.664 515.579 137.367C516.873 136.047 517.773 134.435 518.277 132.533C518.782 130.631 518.797 128.798 518.321 127.033C517.852 125.245 516.955 123.715 515.628 122.444C514.308 121.151 512.685 120.248 510.759 119.737C508.834 119.227 506.966 119.203 505.154 119.666C503.372 120.111 501.823 120.992 500.506 122.306C499.218 123.603 498.322 125.202 497.817 127.105C497.313 129.007 497.295 130.852 497.764 132.64C498.262 134.411 499.172 135.944 500.492 137.238C501.842 138.514 503.479 139.408 505.405 139.919Z" fill="#3E4347"/>
<rect x="333.714" y="62.4748" width="5.967" height="249.619" transform="rotate(-75.1403 333.714 62.4748)" fill="#3E4347"/>
<rect x="321.982" y="106.692" width="5.967" height="249.619" transform="rotate(-75.1403 321.982 106.692)" fill="#3E4347"/>
<path d="M440.526 362.93C440.052 364.716 438.965 366.054 437.264 366.944C435.569 367.81 433.381 367.962 430.699 367.399L429.638 371.401L427.898 370.939L428.95 366.973C427.282 366.43 425.767 365.681 424.407 364.724C423.076 363.75 422.099 362.709 421.474 361.6L423.01 359.884C423.612 360.888 424.492 361.829 425.65 362.707C426.83 363.592 428.128 364.271 429.541 364.746L431.969 355.594C430.473 354.775 429.25 354.004 428.3 353.28C427.356 352.533 426.638 351.635 426.147 350.586C425.685 349.519 425.645 348.267 426.026 346.829C426.5 345.043 427.547 343.719 429.166 342.857C430.791 341.973 432.907 341.764 435.515 342.233L436.576 338.231L438.316 338.693L437.264 342.659C438.574 343.057 439.791 343.615 440.916 344.336C442.07 345.04 443.016 345.824 443.755 346.691L442.34 348.513C441.549 347.658 440.666 346.914 439.691 346.283C438.717 345.652 437.714 345.175 436.682 344.851L434.235 354.072C435.841 354.945 437.131 355.747 438.104 356.477C439.084 357.184 439.828 358.076 440.336 359.155C440.844 360.233 440.908 361.492 440.526 362.93ZM428.585 347.433C428.265 348.64 428.463 349.673 429.178 350.533C429.916 351.399 431.062 352.275 432.616 353.158L434.924 344.459C433.17 344.143 431.745 344.274 430.648 344.852C429.58 345.413 428.893 346.273 428.585 347.433ZM431.281 365.207C433.151 365.554 434.651 365.468 435.782 364.949C436.913 364.429 437.635 363.578 437.949 362.395C438.282 361.143 438.055 360.077 437.27 359.198C436.485 358.32 435.258 357.423 433.589 356.508L431.281 365.207Z" fill="black"/>
<path d="M267.986 305.984L263.706 304.848L264.002 303.734L273.849 306.347L273.554 307.461L269.274 306.325L266.338 317.39L265.05 317.049L267.986 305.984ZM277.801 320.543C276.595 320.223 275.569 319.666 274.725 318.871C273.895 318.067 273.327 317.122 273.019 316.034C272.723 314.95 272.731 313.822 273.042 312.651C273.353 311.48 273.905 310.496 274.7 309.702C275.506 308.91 276.466 308.376 277.582 308.101C278.713 307.818 279.881 307.836 281.088 308.156C282.294 308.476 283.307 309.031 284.129 309.82C284.961 310.612 285.53 311.557 285.834 312.656C286.142 313.743 286.14 314.872 285.829 316.044C285.518 317.215 284.958 318.203 284.149 319.006C283.343 319.798 282.382 320.331 281.267 320.606C280.162 320.884 279.007 320.863 277.801 320.543ZM278.105 319.395C279.068 319.651 279.995 319.667 280.886 319.444C281.78 319.209 282.549 318.768 283.193 318.119C283.84 317.459 284.289 316.653 284.542 315.702C284.794 314.751 284.801 313.834 284.564 312.952C284.329 312.058 283.88 311.293 283.217 310.658C282.557 310.011 281.746 309.56 280.783 309.304C279.82 309.049 278.886 309.037 277.98 309.268C277.089 309.491 276.315 309.931 275.656 310.588C275.012 311.237 274.564 312.037 274.312 312.988C274.059 313.939 274.05 314.862 274.285 315.756C274.534 316.641 274.989 317.407 275.649 318.054C276.324 318.693 277.143 319.14 278.105 319.395ZM292.231 312.416L287.952 311.281L288.247 310.167L298.094 312.78L297.799 313.894L293.519 312.758L290.583 323.823L289.296 323.482L292.231 312.416ZM304.809 324.115L298.024 322.315L295.699 325.181L294.359 324.825L303.158 314.124L304.428 314.461L306.764 328.116L305.407 327.756L304.809 324.115ZM304.616 322.947L303.429 315.63L298.77 321.396L304.616 322.947ZM312.01 316.472L313.298 316.814L310.362 327.879L317.182 329.689L316.886 330.802L308.779 328.651L312.01 316.472Z" fill="black"/>
<rect x="442.368" y="374.254" width="11.934" height="71.604" transform="rotate(-75.1403 442.368 374.254)" fill="#3E4347"/>
<line x1="319.585" y1="340.642" x2="410.903" y2="364.871" stroke="black" stroke-width="2" stroke-linejoin="round" stroke-dasharray="1 1"/>
<path d="M502.504 197.474C502.188 198.664 501.463 199.556 500.329 200.149C499.199 200.727 497.74 200.828 495.953 200.453L495.245 203.121L494.085 202.813L494.787 200.169C493.674 199.807 492.665 199.308 491.758 198.67C490.871 198.02 490.219 197.326 489.803 196.587L490.826 195.443C491.228 196.112 491.815 196.74 492.586 197.325C493.374 197.915 494.238 198.368 495.181 198.684L496.799 192.583C495.802 192.037 494.987 191.523 494.353 191.04C493.724 190.542 493.246 189.943 492.918 189.244C492.61 188.533 492.583 187.698 492.838 186.74C493.154 185.549 493.851 184.666 494.931 184.092C496.014 183.502 497.425 183.363 499.163 183.675L499.871 181.008L501.031 181.315L500.329 183.96C501.202 184.225 502.014 184.597 502.764 185.078C503.533 185.547 504.164 186.07 504.656 186.647L503.713 187.862C503.186 187.292 502.597 186.796 501.948 186.376C501.298 185.955 500.629 185.637 499.941 185.421L498.31 191.568C499.381 192.151 500.24 192.685 500.889 193.172C501.542 193.643 502.038 194.238 502.377 194.957C502.716 195.676 502.758 196.515 502.504 197.474ZM494.543 187.142C494.33 187.947 494.462 188.635 494.939 189.209C495.431 189.786 496.195 190.37 497.23 190.959L498.769 185.16C497.6 184.949 496.65 185.036 495.919 185.422C495.207 185.796 494.748 186.369 494.543 187.142ZM496.341 198.992C497.587 199.223 498.587 199.166 499.341 198.819C500.095 198.473 500.577 197.906 500.786 197.117C501.008 196.282 500.857 195.571 500.334 194.986C499.81 194.4 498.992 193.802 497.879 193.192L496.341 198.992Z" fill="black"/>
<rect x="313.585" y="153.852" width="4.9725" height="71.604" transform="rotate(-75.1403 313.585 153.852)" fill="#3E4347"/>
<rect x="513.523" y="206.901" width="2.9835" height="34.8075" transform="rotate(-75.1403 513.523 206.901)" fill="#3E4347"/>
<line x1="390.74" y1="173.288" x2="482.058" y2="197.518" stroke="black" stroke-width="2" stroke-linejoin="round" stroke-dasharray="1 1"/>
<path d="M494.598 227.272C494.282 228.463 493.557 229.355 492.423 229.948C491.293 230.525 489.834 230.627 488.047 230.252L487.339 232.919L486.179 232.612L486.881 229.967C485.768 229.606 484.758 229.106 483.852 228.468C482.965 227.819 482.313 227.125 481.897 226.385L482.92 225.241C483.322 225.911 483.909 226.538 484.68 227.124C485.467 227.713 486.332 228.166 487.275 228.482L488.893 222.381C487.896 221.835 487.081 221.321 486.447 220.839C485.818 220.341 485.339 219.742 485.012 219.042C484.704 218.332 484.677 217.497 484.931 216.538C485.247 215.347 485.945 214.465 487.024 213.89C488.108 213.3 489.519 213.162 491.257 213.474L491.965 210.806L493.124 211.114L492.423 213.758C493.296 214.023 494.108 214.396 494.858 214.876C495.627 215.345 496.258 215.868 496.75 216.446L495.807 217.661C495.28 217.09 494.691 216.595 494.041 216.174C493.391 215.753 492.723 215.435 492.035 215.22L490.404 221.367C491.474 221.949 492.334 222.483 492.983 222.97C493.636 223.441 494.132 224.036 494.471 224.755C494.81 225.474 494.852 226.313 494.598 227.272ZM486.637 216.941C486.424 217.745 486.555 218.434 487.032 219.007C487.525 219.585 488.289 220.168 489.324 220.758L490.863 214.958C489.694 214.747 488.744 214.835 488.012 215.22C487.301 215.594 486.842 216.168 486.637 216.941ZM488.434 228.79C489.681 229.022 490.681 228.964 491.435 228.618C492.189 228.272 492.671 227.704 492.88 226.915C493.101 226.08 492.951 225.37 492.427 224.784C491.904 224.198 491.086 223.601 489.973 222.991L488.434 228.79Z" fill="black"/>
<rect x="305.678" y="183.65" width="4.9725" height="71.604" transform="rotate(-75.1403 305.678 183.65)" fill="#3E4347"/>
<rect x="505.616" y="236.699" width="2.9835" height="34.8075" transform="rotate(-75.1403 505.616 236.699)" fill="#3E4347"/>
<line x1="382.834" y1="203.087" x2="474.152" y2="227.316" stroke="black" stroke-width="2" stroke-linejoin="round" stroke-dasharray="1 1"/>
<path d="M487.202 255.148C486.886 256.339 486.161 257.231 485.027 257.824C483.897 258.401 482.438 258.502 480.65 258.127L479.943 260.795L478.783 260.487L479.484 257.843C478.372 257.482 477.362 256.982 476.455 256.344C475.568 255.695 474.917 255 474.5 254.261L475.524 253.117C475.926 253.787 476.512 254.414 477.284 255C478.071 255.589 478.936 256.042 479.878 256.358L481.497 250.257C480.5 249.711 479.684 249.197 479.051 248.714C478.422 248.216 477.943 247.618 477.616 246.918C477.307 246.208 477.281 245.373 477.535 244.414C477.851 243.223 478.549 242.341 479.628 241.766C480.712 241.176 482.122 241.037 483.86 241.35L484.568 238.682L485.728 238.99L485.026 241.634C485.9 241.899 486.711 242.272 487.461 242.752C488.231 243.221 488.862 243.744 489.354 244.322L488.411 245.537C487.884 244.966 487.295 244.471 486.645 244.05C485.995 243.629 485.326 243.311 484.639 243.096L483.008 249.243C484.078 249.825 484.938 250.359 485.587 250.846C486.24 251.317 486.736 251.912 487.075 252.631C487.414 253.35 487.456 254.189 487.202 255.148ZM479.241 244.817C479.027 245.621 479.159 246.31 479.636 246.883C480.128 247.461 480.892 248.044 481.928 248.634L483.467 242.834C482.298 242.623 481.347 242.711 480.616 243.096C479.904 243.47 479.446 244.044 479.241 244.817ZM481.038 256.666C482.284 256.897 483.285 256.84 484.039 256.494C484.793 256.148 485.274 255.58 485.484 254.791C485.705 253.956 485.554 253.246 485.031 252.66C484.508 252.074 483.69 251.477 482.577 250.867L481.038 256.666Z" fill="black"/>
<rect x="298.282" y="211.526" width="4.9725" height="71.604" transform="rotate(-75.1403 298.282 211.526)" fill="#3E4347"/>
<rect x="498.22" y="264.575" width="2.9835" height="34.8075" transform="rotate(-75.1403 498.22 264.575)" fill="#3E4347"/>
<line x1="375.438" y1="230.963" x2="466.756" y2="255.192" stroke="black" stroke-width="2" stroke-linejoin="round" stroke-dasharray="1 1"/>
<path d="M472.664 309.939C472.348 311.129 471.623 312.021 470.489 312.614C469.359 313.192 467.901 313.293 466.113 312.918L465.405 315.586L464.245 315.278L464.947 312.634C463.834 312.272 462.825 311.773 461.918 311.135C461.031 310.486 460.379 309.791 459.963 309.052L460.986 307.908C461.388 308.577 461.975 309.205 462.746 309.79C463.534 310.38 464.398 310.833 465.341 311.149L466.96 305.048C465.962 304.502 465.147 303.988 464.513 303.505C463.884 303.007 463.406 302.408 463.078 301.709C462.77 300.998 462.743 300.164 462.998 299.205C463.314 298.014 464.011 297.131 465.091 296.557C466.174 295.967 467.585 295.828 469.323 296.14L470.031 293.473L471.191 293.78L470.489 296.425C471.362 296.69 472.174 297.062 472.924 297.543C473.693 298.012 474.324 298.535 474.816 299.113L473.873 300.327C473.346 299.757 472.757 299.262 472.108 298.841C471.458 298.42 470.789 298.102 470.101 297.886L468.47 304.034C469.541 304.616 470.4 305.15 471.049 305.637C471.702 306.108 472.198 306.703 472.537 307.422C472.876 308.141 472.919 308.98 472.664 309.939ZM464.703 299.608C464.49 300.412 464.622 301.101 465.099 301.674C465.591 302.252 466.355 302.835 467.39 303.424L468.929 297.625C467.76 297.414 466.81 297.501 466.079 297.887C465.367 298.261 464.908 298.834 464.703 299.608ZM466.501 311.457C467.747 311.688 468.747 311.631 469.501 311.285C470.255 310.938 470.737 310.371 470.946 309.582C471.168 308.747 471.017 308.037 470.494 307.451C469.97 306.865 469.152 306.267 468.039 305.657L466.501 311.457Z" fill="black"/>
<rect x="283.745" y="266.317" width="4.9725" height="71.604" transform="rotate(-75.1403 283.745 266.317)" fill="#3E4347"/>
<rect x="483.683" y="319.366" width="2.9835" height="34.8075" transform="rotate(-75.1403 483.683 319.366)" fill="#3E4347"/>
<line x1="360.9" y1="285.754" x2="452.218" y2="309.983" stroke="black" stroke-width="2" stroke-linejoin="round" stroke-dasharray="1 1"/>
<path d="M480.06 282.063C479.745 283.254 479.02 284.145 477.886 284.738C476.756 285.316 475.297 285.417 473.509 285.042L472.801 287.71L471.642 287.402L472.343 284.758C471.231 284.396 470.221 283.897 469.314 283.259C468.427 282.61 467.775 281.915 467.359 281.176L468.383 280.032C468.784 280.701 469.371 281.329 470.143 281.914C470.93 282.504 471.795 282.957 472.737 283.273L474.356 277.172C473.359 276.626 472.543 276.112 471.91 275.629C471.28 275.131 470.802 274.533 470.474 273.833C470.166 273.122 470.14 272.288 470.394 271.329C470.71 270.138 471.408 269.255 472.487 268.681C473.571 268.091 474.981 267.952 476.719 268.264L477.427 265.597L478.587 265.904L477.885 268.549C478.759 268.814 479.57 269.186 480.32 269.667C481.09 270.136 481.721 270.659 482.213 271.237L481.27 272.451C480.742 271.881 480.154 271.386 479.504 270.965C478.854 270.544 478.185 270.226 477.498 270.01L475.867 276.158C476.937 276.74 477.797 277.274 478.446 277.761C479.099 278.232 479.595 278.827 479.934 279.546C480.273 280.265 480.315 281.104 480.06 282.063ZM472.1 271.732C471.886 272.536 472.018 273.225 472.495 273.798C472.987 274.376 473.751 274.959 474.787 275.548L476.325 269.749C475.156 269.538 474.206 269.625 473.475 270.011C472.763 270.385 472.305 270.958 472.1 271.732ZM473.897 283.581C475.143 283.812 476.144 283.755 476.898 283.409C477.652 283.062 478.133 282.495 478.342 281.706C478.564 280.871 478.413 280.161 477.89 279.575C477.367 278.989 476.549 278.391 475.436 277.782L473.897 283.581Z" fill="black"/>
<rect x="291.141" y="238.441" width="4.9725" height="71.604" transform="rotate(-75.1403 291.141 238.441)" fill="#3E4347"/>
<rect x="491.079" y="291.49" width="2.9835" height="34.8075" transform="rotate(-75.1403 491.079 291.49)" fill="#3E4347"/>
<line x1="368.297" y1="257.878" x2="459.614" y2="282.107" stroke="black" stroke-width="2" stroke-linejoin="round" stroke-dasharray="1 1"/>
<rect x="255.592" y="345.276" width="11.934" height="37.791" transform="rotate(14.8597 255.592 345.276)" fill="#3E4347"/>
<rect x="270.011" y="349.101" width="7.956" height="37.791" transform="rotate(14.8597 270.011 349.101)" fill="#3E4347"/>
<rect x="456.492" y="398.58" width="7.956" height="37.791" transform="rotate(14.8597 456.492 398.58)" fill="#3E4347"/>
<rect x="280.585" y="351.907" width="5.967" height="37.791" transform="rotate(14.8597 280.585 351.907)" fill="#3E4347"/>
<rect x="478.6" y="404.446" width="5.967" height="37.791" transform="rotate(14.8597 478.6 404.446)" fill="#3E4347"/>
<rect x="289.236" y="354.202" width="12.9285" height="37.791" transform="rotate(14.8597 289.236 354.202)" fill="#3E4347"/>
<rect x="441.112" y="394.499" width="12.9285" height="37.791" transform="rotate(14.8597 441.112 394.499)" fill="#3E4347"/>
<rect x="314.228" y="360.833" width="11.934" height="37.791" transform="rotate(14.8597 314.228 360.833)" fill="#3E4347"/>
<rect x="328.647" y="364.659" width="3.978" height="37.791" transform="rotate(14.8597 328.647 364.659)" fill="#3E4347"/>
<rect x="467.065" y="401.385" width="3.978" height="37.791" transform="rotate(14.8597 467.065 401.385)" fill="#3E4347"/>
<rect x="333.453" y="365.934" width="9.945" height="37.791" transform="rotate(14.8597 333.453 365.934)" fill="#3E4347"/>
<rect x="345.949" y="369.25" width="16.9065" height="37.791" transform="rotate(14.8597 345.949 369.25)" fill="#3E4347"/>
<rect x="409.391" y="386.083" width="16.9065" height="37.791" transform="rotate(14.8597 409.391 386.083)" fill="#3E4347"/>
<rect x="365.174" y="374.351" width="5.967" height="37.791" transform="rotate(14.8597 365.174 374.351)" fill="#3E4347"/>
<rect x="373.825" y="376.646" width="2.9835" height="37.791" transform="rotate(14.8597 373.825 376.646)" fill="#3E4347"/>
<rect x="487.251" y="406.741" width="2.9835" height="37.791" transform="rotate(14.8597 487.251 406.741)" fill="#3E4347"/>
<rect x="498.786" y="409.802" width="2.9835" height="37.791" transform="rotate(14.8597 498.786 409.802)" fill="#3E4347"/>
<rect x="379.592" y="378.176" width="2.9835" height="37.791" transform="rotate(14.8597 379.592 378.176)" fill="#3E4347"/>
<rect x="436.305" y="393.224" width="2.9835" height="37.791" transform="rotate(14.8597 436.305 393.224)" fill="#3E4347"/>
<rect x="473.794" y="403.17" width="2.9835" height="37.791" transform="rotate(14.8597 473.794 403.17)" fill="#3E4347"/>
<rect x="493.019" y="408.271" width="2.9835" height="37.791" transform="rotate(14.8597 493.019 408.271)" fill="#3E4347"/>
<rect x="385.36" y="379.706" width="4.9725" height="37.791" transform="rotate(14.8597 385.36 379.706)" fill="#3E4347"/>
<rect x="393.05" y="381.747" width="6.9615" height="37.791" transform="rotate(14.8597 393.05 381.747)" fill="#3E4347"/>
<rect x="402.662" y="384.297" width="4.9725" height="37.791" transform="rotate(14.8597 402.662 384.297)" fill="#3E4347"/>
<rect x="428.616" y="391.183" width="4.9725" height="37.791" transform="rotate(14.8597 428.616 391.183)" fill="#3E4347"/>
<rect x="304.616" y="358.283" width="6.9615" height="37.791" transform="rotate(14.8597 304.616 358.283)" fill="#3E4347"/>
<g filter="url(#filter2_d)">
<rect x="209.632" y="156.593" width="276.24" height="145.203" rx="16" transform="rotate(0.589011 209.632 156.593)" fill="#F64F1C"/>
<rect x="209.297" y="189.174" width="276.24" height="30.4572" transform="rotate(0.589011 209.297 189.174)" fill="#3E4347"/>
<path d="M229.891 253.012C229.902 251.907 230.807 251.021 231.911 251.032L290.947 251.639C292.052 251.651 292.938 252.555 292.927 253.66L292.844 261.701C292.833 262.805 291.928 263.691 290.824 263.68L231.787 263.073C230.683 263.062 229.797 262.157 229.808 261.053L229.891 253.012Z" fill="#F0F0F0"/>
<rect x="229.678" y="273.676" width="63.0394" height="12.0412" rx="2" transform="rotate(0.589011 229.678 273.676)" fill="#F0F0F0"/>
<circle cx="442.203" cy="271.611" r="21.2492" transform="rotate(0.589011 442.203 271.611)" fill="#FBB144"/>
<circle cx="416.705" cy="271.349" r="21.2492" transform="rotate(0.589011 416.705 271.349)" fill="#EC2133"/>
<path fill-rule="evenodd" clip-rule="evenodd" d="M429.279 288.479C434.466 284.733 437.881 278.569 437.953 271.568C438.025 264.566 434.737 258.333 429.629 254.482C424.442 258.227 421.027 264.391 420.955 271.393C420.883 278.394 424.171 284.627 429.279 288.479Z" fill="#F0662F"/>
</g>
<g filter="url(#filter3_d)">
<g filter="url(#filter4_d)">
<rect x="196.928" y="73.9276" width="276.04" height="145.003" rx="15.9" transform="rotate(16.065 196.928 73.9276)" fill="#7B0FA3" stroke="black" stroke-width="0.2"/>
<path d="M246.703 208.838C247.008 207.776 248.117 207.164 249.178 207.469L286.707 218.277C287.769 218.582 288.381 219.691 288.076 220.752L287.08 224.209C286.775 225.271 285.666 225.884 284.605 225.578L247.076 214.77C246.014 214.465 245.401 213.357 245.707 212.295L246.703 208.838Z" fill="#F0F0F0"/>
<path d="M306.734 226.125C307.04 225.064 308.148 224.451 309.21 224.757L346.739 235.564C347.8 235.87 348.413 236.978 348.107 238.04L347.112 241.497C346.806 242.558 345.698 243.171 344.636 242.865L307.107 232.058C306.046 231.752 305.433 230.644 305.739 229.583L306.734 226.125Z" fill="#F0F0F0"/>
<path d="M291.321 221.687C291.626 220.625 292.735 220.013 293.796 220.318L302.121 222.715C303.182 223.021 303.795 224.129 303.489 225.191L302.494 228.648C302.188 229.71 301.08 230.322 300.018 230.017L291.694 227.619C290.632 227.314 290.019 226.205 290.325 225.144L291.321 221.687Z" fill="#F0F0F0"/>
<circle cx="423.739" cy="171.794" r="21.2492" transform="rotate(16.065 423.739 171.794)" fill="#FBB144"/>
<circle cx="399.236" cy="164.738" r="21.2492" transform="rotate(16.065 399.236 164.738)" fill="#EC2133"/>
<path fill-rule="evenodd" clip-rule="evenodd" d="M416.192 151.931C420.087 157.006 421.593 163.89 419.655 170.618C417.717 177.347 412.781 182.376 406.783 184.602C402.888 179.527 401.382 172.642 403.32 165.914C405.257 159.186 410.194 154.157 416.192 151.931Z" fill="#F0662F"/>
</g>
<rect x="204.347" y="130.532" width="42.8544" height="30.1913" rx="5.9" transform="rotate(16.065 204.347 130.532)" fill="#D2D7DF" stroke="black" stroke-width="0.2"/>
<path fill-rule="evenodd" clip-rule="evenodd" d="M226.959 148.568L242.367 153.005L240.142 160.733L224.734 156.296C224.709 156.359 224.684 156.421 224.659 156.483L240.086 160.926L240.278 160.981L240.334 160.789L242.559 153.061L242.615 152.869L242.422 152.813L226.995 148.371C226.983 148.436 226.971 148.502 226.959 148.568ZM216.861 145.452L201.434 141.01L201.242 140.954L201.186 141.146L198.961 148.874L198.905 149.067L199.098 149.122L214.525 153.565C214.537 153.499 214.549 153.433 214.561 153.367L199.153 148.93L201.378 141.202L216.786 145.639C216.811 145.576 216.836 145.514 216.861 145.452Z" fill="black"/>
<mask id="path-108-inside-1" fill="white">
<path fill-rule="evenodd" clip-rule="evenodd" d="M225.481 156.685C223.029 162.593 219.507 166.42 216.858 165.657C214.209 164.894 213.262 159.781 214.327 153.474C215.279 153.479 216.453 151.968 217.049 149.899C217.645 147.829 217.454 145.926 216.645 145.424C219.098 139.516 222.619 135.69 225.268 136.453C227.917 137.215 228.864 142.329 227.799 148.636C226.847 148.634 225.675 150.144 225.08 152.212C224.484 154.279 224.674 156.181 225.481 156.685Z"/>
</mask>
<path fill-rule="evenodd" clip-rule="evenodd" d="M225.481 156.685C223.029 162.593 219.507 166.42 216.858 165.657C214.209 164.894 213.262 159.781 214.327 153.474C215.279 153.479 216.453 151.968 217.049 149.899C217.645 147.829 217.454 145.926 216.645 145.424C219.098 139.516 222.619 135.69 225.268 136.453C227.917 137.215 228.864 142.329 227.799 148.636C226.847 148.634 225.675 150.144 225.08 152.212C224.484 154.279 224.674 156.181 225.481 156.685Z" fill="#D2D7DF"/>
<path d="M225.481 156.685L225.666 156.762L225.731 156.606L225.587 156.516L225.481 156.685ZM214.327 153.474L214.328 153.274L214.158 153.273L214.13 153.441L214.327 153.474ZM216.645 145.424L216.46 145.347L216.395 145.504L216.54 145.594L216.645 145.424ZM227.799 148.636L227.799 148.836L227.968 148.837L227.996 148.67L227.799 148.636ZM216.803 165.849C218.242 166.264 219.86 165.421 221.388 163.81C222.928 162.187 224.434 159.73 225.666 156.762L225.297 156.609C224.076 159.548 222.594 161.958 221.098 163.535C219.59 165.124 218.123 165.813 216.913 165.465L216.803 165.849ZM214.13 153.441C213.595 156.61 213.563 159.491 214.004 161.684C214.441 163.861 215.363 165.435 216.803 165.849L216.913 165.465C215.704 165.117 214.828 163.753 214.396 161.605C213.967 159.474 213.994 156.645 214.524 153.507L214.13 153.441ZM216.856 149.843C216.564 150.859 216.132 151.73 215.663 152.343C215.184 152.968 214.705 153.276 214.328 153.274L214.326 153.674C214.901 153.677 215.485 153.232 215.98 152.586C216.485 151.927 216.937 151.008 217.241 149.954L216.856 149.843ZM216.54 145.594C216.86 145.792 217.102 146.308 217.175 147.092C217.246 147.86 217.149 148.828 216.856 149.843L217.241 149.954C217.544 148.9 217.65 147.882 217.573 147.055C217.497 146.244 217.239 145.557 216.75 145.254L216.54 145.594ZM225.323 136.26C223.884 135.846 222.266 136.689 220.738 138.299C219.198 139.922 217.693 142.379 216.46 145.347L216.83 145.5C218.05 142.561 219.532 140.151 221.028 138.574C222.536 136.986 224.003 136.296 225.213 136.645L225.323 136.26ZM227.996 148.67C228.531 145.501 228.563 142.619 228.122 140.426C227.685 138.249 226.763 136.675 225.323 136.26L225.213 136.645C226.422 136.993 227.298 138.357 227.73 140.505C228.159 142.636 228.132 145.465 227.602 148.603L227.996 148.67ZM225.272 152.267C225.564 151.252 225.996 150.382 226.465 149.769C226.943 149.144 227.422 148.835 227.799 148.836L227.8 148.436C227.225 148.435 226.642 148.88 226.147 149.526C225.643 150.185 225.191 151.103 224.888 152.156L225.272 152.267ZM225.587 156.516C225.267 156.316 225.026 155.8 224.954 155.016C224.883 154.249 224.98 153.281 225.272 152.267L224.888 152.156C224.584 153.209 224.479 154.227 224.555 155.053C224.63 155.864 224.888 156.551 225.376 156.855L225.587 156.516Z" fill="black" mask="url(#path-108-inside-1)"/>
</g>
<defs>
<filter id="filter0_d" x="14.2136" y="25.4921" width="451.517" height="451.517" filterUnits="userSpaceOnUse" color-interpolation-filters="sRGB">
<feFlood flood-opacity="0" result="BackgroundImageFix"/>
<feColorMatrix in="SourceAlpha" type="matrix" values="0 0 0 0 0 0 0 0 0 0 0 0 0 0 0 0 0 0 127 0"/>
<feOffset dy="4"/>
<feGaussianBlur stdDeviation="2"/>
<feColorMatrix type="matrix" values="0 0 0 0 0 0 0 0 0 0 0 0 0 0 0 0 0 0 0.25 0"/>
<feBlend mode="normal" in2="BackgroundImageFix" result="effect1_dropShadow"/>
<feBlend mode="normal" in="SourceGraphic" in2="effect1_dropShadow" result="shape"/>
</filter>
<filter id="filter1_d" x="217.32" y="26.8104" width="391.68" height="453.825" filterUnits="userSpaceOnUse" color-interpolation-filters="sRGB">
<feFlood flood-opacity="0" result="BackgroundImageFix"/>
<feColorMatrix in="SourceAlpha" type="matrix" values="0 0 0 0 0 0 0 0 0 0 0 0 0 0 0 0 0 0 127 0"/>
<feOffset dy="4"/>
<feGaussianBlur stdDeviation="2"/>
<feColorMatrix type="matrix" values="0 0 0 0 0 0 0 0 0 0 0 0 0 0 0 0 0 0 0.25 0"/>
<feBlend mode="normal" in2="BackgroundImageFix" result="effect1_dropShadow"/>
<feBlend mode="normal" in="SourceGraphic" in2="effect1_dropShadow" result="shape"/>
</filter>
<filter id="filter2_d" x="204.302" y="156.757" width="285.391" height="155.708" filterUnits="userSpaceOnUse" color-interpolation-filters="sRGB">
<feFlood flood-opacity="0" result="BackgroundImageFix"/>
<feColorMatrix in="SourceAlpha" type="matrix" values="0 0 0 0 0 0 0 0 0 0 0 0 0 0 0 0 0 0 127 0"/>
<feOffset dy="4"/>
<feGaussianBlur stdDeviation="2"/>
<feColorMatrix type="matrix" values="0 0 0 0 0 0 0 0 0 0 0 0 0 0 0 0 0 0 0.25 0"/>
<feBlend mode="normal" in2="BackgroundImageFix" result="effect1_dropShadow"/>
<feBlend mode="normal" in="SourceGraphic" in2="effect1_dropShadow" result="shape"/>
</filter>
<filter id="filter3_d" x="156.476" y="77.6026" width="306.037" height="216.379" filterUnits="userSpaceOnUse" color-interpolation-filters="sRGB">
<feFlood flood-opacity="0" result="BackgroundImageFix"/>
<feColorMatrix in="SourceAlpha" type="matrix" values="0 0 0 0 0 0 0 0 0 0 0 0 0 0 0 0 0 0 127 0"/>
<feOffset dy="4"/>
<feGaussianBlur stdDeviation="2"/>
<feColorMatrix type="matrix" values="0 0 0 0 0 0 0 0 0 0 0 0 0 0 0 0 0 0 0.25 0"/>
<feBlend mode="normal" in2="BackgroundImageFix" result="effect1_dropShadow"/>
<feBlend mode="normal" in="SourceGraphic" in2="effect1_dropShadow" result="shape"/>
</filter>
<filter id="filter4_d" x="156.476" y="77.6026" width="306.037" height="216.379" filterUnits="userSpaceOnUse" color-interpolation-filters="sRGB">
<feFlood flood-opacity="0" result="BackgroundImageFix"/>
<feColorMatrix in="SourceAlpha" type="matrix" values="0 0 0 0 0 0 0 0 0 0 0 0 0 0 0 0 0 0 127 0"/>
<feOffset dy="4"/>
<feGaussianBlur stdDeviation="2"/>
<feColorMatrix type="matrix" values="0 0 0 0 0 0 0 0 0 0 0 0 0 0 0 0 0 0 0.25 0"/>
<feBlend mode="normal" in2="BackgroundImageFix" result="effect1_dropShadow"/>
<feBlend mode="normal" in="SourceGraphic" in2="effect1_dropShadow" result="shape"/>
</filter>
<linearGradient id="paint0_linear" x1="58.117" y1="137.617" x2="58.117" y2="177.771" gradientUnits="userSpaceOnUse">
<stop stop-color="#797979"/>
<stop offset="1" stop-color="#4E5255"/>
</linearGradient>
<linearGradient id="paint1_linear" x1="65.4084" y1="133.407" x2="65.4084" y2="173.561" gradientUnits="userSpaceOnUse">
<stop stop-color="#797979"/>
<stop offset="1" stop-color="#4E5255"/>
</linearGradient>
<linearGradient id="paint2_linear" x1="100.743" y1="113.007" x2="100.743" y2="153.161" gradientUnits="userSpaceOnUse">
<stop stop-color="#797979"/>
<stop offset="1" stop-color="#4E5255"/>
</linearGradient>
<linearGradient id="paint3_linear" x1="108.035" y1="108.797" x2="108.035" y2="148.951" gradientUnits="userSpaceOnUse">
<stop stop-color="#797979"/>
<stop offset="1" stop-color="#4E5255"/>
</linearGradient>
<linearGradient id="paint4_linear" x1="142.809" y1="88.7203" x2="142.809" y2="128.874" gradientUnits="userSpaceOnUse">
<stop stop-color="#797979"/>
<stop offset="1" stop-color="#4E5255"/>
</linearGradient>
<linearGradient id="paint5_linear" x1="150.1" y1="84.5106" x2="150.1" y2="124.664" gradientUnits="userSpaceOnUse">
<stop stop-color="#797979"/>
<stop offset="1" stop-color="#4E5255"/>
</linearGradient>
<linearGradient id="paint6_linear" x1="185.435" y1="64.11" x2="185.435" y2="104.264" gradientUnits="userSpaceOnUse">
<stop stop-color="#797979"/>
<stop offset="1" stop-color="#4E5255"/>
</linearGradient>
<linearGradient id="paint7_linear" x1="192.727" y1="59.9003" x2="192.727" y2="100.054" gradientUnits="userSpaceOnUse">
<stop stop-color="#797979"/>
<stop offset="1" stop-color="#4E5255"/>
</linearGradient>
<linearGradient id="paint8_linear" x1="227.501" y1="39.8235" x2="227.501" y2="79.9772" gradientUnits="userSpaceOnUse">
<stop stop-color="#797979"/>
<stop offset="1" stop-color="#4E5255"/>
</linearGradient>
<linearGradient id="paint9_linear" x1="234.792" y1="35.6137" x2="234.792" y2="75.7675" gradientUnits="userSpaceOnUse">
<stop stop-color="#797979"/>
<stop offset="1" stop-color="#4E5255"/>
</linearGradient>
</defs>
</svg>
