<svg width="351" height="121" viewBox="0 0 351 121" fill="none" xmlns="http://www.w3.org/2000/svg">
<g filter="url(#filter0_d)">
<path d="M25.024 42.872H4.384V27.8H64.576V42.872H44.032V95H25.024V42.872Z" fill="white"/>
</g>
<g filter="url(#filter1_d)">
<path d="M74.496 59.736C78.8053 59.736 82.2613 61.016 84.864 63.576C87.5093 66.136 88.832 69.9973 88.832 75.16V95H76.672V77.144C76.672 72.408 74.7733 70.04 70.976 70.04C68.8853 70.04 67.2 70.7227 65.92 72.088C64.6827 73.4533 64.064 75.5013 64.064 78.232V95H51.904V47.512H64.064V63.512C65.3867 62.2747 66.944 61.336 68.736 60.696C70.528 60.056 72.448 59.736 74.496 59.736ZM96.4665 60.312H108.626V95H96.4665V60.312ZM102.546 56.472C100.328 56.472 98.5358 55.8533 97.1705 54.616C95.8052 53.3787 95.1225 51.8427 95.1225 50.008C95.1225 48.1733 95.8052 46.6373 97.1705 45.4C98.5358 44.1627 100.328 43.544 102.546 43.544C104.765 43.544 106.557 44.1413 107.922 45.336C109.288 46.488 109.97 47.9813 109.97 49.816C109.97 51.736 109.288 53.336 107.922 54.616C106.557 55.8533 104.765 56.472 102.546 56.472ZM174.835 50.2C178.888 50.2 182.408 50.8827 185.395 52.248C188.382 53.5707 190.686 55.4907 192.307 58.008C193.928 60.4827 194.739 63.4053 194.739 66.776C194.739 70.1467 193.928 73.0693 192.307 75.544C190.686 78.0187 188.382 79.9387 185.395 81.304C182.408 82.6267 178.888 83.288 174.835 83.288H167.027V95H154.355V50.2H174.835ZM174.067 73.304C176.67 73.304 178.632 72.7493 179.955 71.64C181.278 70.488 181.939 68.8667 181.939 66.776C181.939 64.6853 181.278 63.064 179.955 61.912C178.632 60.76 176.67 60.184 174.067 60.184H167.027V73.304H174.067ZM235.735 77.72C235.735 77.8053 235.671 78.808 235.543 80.728H210.327C210.839 82.52 211.82 83.9067 213.271 84.888C214.764 85.8267 216.62 86.296 218.839 86.296C220.503 86.296 221.932 86.0613 223.127 85.592C224.364 85.1227 225.602 84.3547 226.839 83.288L233.239 89.944C229.868 93.6987 224.94 95.576 218.455 95.576C214.402 95.576 210.839 94.808 207.767 93.272C204.695 91.736 202.306 89.6027 200.599 86.872C198.935 84.1413 198.103 81.048 198.103 77.592C198.103 74.1787 198.914 71.128 200.535 68.44C202.199 65.7093 204.482 63.576 207.383 62.04C210.284 60.504 213.548 59.736 217.175 59.736C220.631 59.736 223.767 60.4613 226.583 61.912C229.399 63.32 231.618 65.3893 233.239 68.12C234.903 70.808 235.735 74.008 235.735 77.72ZM217.239 68.376C215.362 68.376 213.783 68.9093 212.503 69.976C211.266 71.0427 210.476 72.4933 210.135 74.328H224.343C224.002 72.4933 223.191 71.0427 221.911 69.976C220.674 68.9093 219.116 68.376 217.239 68.376ZM253.949 95.576C251.048 95.576 248.189 95.256 245.373 94.616C242.557 93.9333 240.296 93.0587 238.589 91.992L242.237 83.672C243.816 84.6533 245.693 85.4427 247.869 86.04C250.045 86.5947 252.2 86.872 254.333 86.872C256.296 86.872 257.683 86.68 258.493 86.296C259.347 85.8693 259.773 85.272 259.773 84.504C259.773 83.736 259.261 83.2027 258.237 82.904C257.256 82.5627 255.677 82.2427 253.501 81.944C250.728 81.6027 248.36 81.1547 246.397 80.6C244.477 80.0453 242.813 79.0213 241.405 77.528C239.997 76.0347 239.293 73.944 239.293 71.256C239.293 69.0373 239.955 67.0747 241.277 65.368C242.6 63.6187 244.52 62.2533 247.037 61.272C249.597 60.248 252.648 59.736 256.189 59.736C258.707 59.736 261.203 59.992 263.677 60.504C266.152 61.016 268.221 61.7413 269.885 62.68L266.237 70.936C263.165 69.2293 259.837 68.376 256.253 68.376C254.333 68.376 252.925 68.6107 252.029 69.08C251.133 69.5067 250.685 70.0827 250.685 70.808C250.685 71.6187 251.176 72.1947 252.157 72.536C253.139 72.8347 254.76 73.1547 257.021 73.496C259.88 73.9227 262.248 74.4133 264.125 74.968C266.003 75.5227 267.624 76.5467 268.989 78.04C270.397 79.4907 271.101 81.5387 271.101 84.184C271.101 86.36 270.44 88.3227 269.117 90.072C267.795 91.7787 265.832 93.1227 263.229 94.104C260.669 95.0853 257.576 95.576 253.949 95.576ZM291.125 59.736C296.885 59.736 301.28 61.0587 304.309 63.704C307.339 66.3067 308.853 70.3173 308.853 75.736V95H297.525V90.52C295.776 93.8907 292.363 95.576 287.285 95.576C284.597 95.576 282.272 95.1067 280.309 94.168C278.347 93.2293 276.853 91.9707 275.829 90.392C274.848 88.7707 274.357 86.936 274.357 84.888C274.357 81.6027 275.616 79.064 278.133 77.272C280.651 75.4373 284.533 74.52 289.781 74.52H296.693C296.48 70.8507 294.027 69.016 289.333 69.016C287.669 69.016 285.984 69.2933 284.277 69.848C282.571 70.36 281.12 71.0853 279.925 72.024L275.829 63.768C277.749 62.488 280.075 61.5067 282.805 60.824C285.579 60.0987 288.352 59.736 291.125 59.736ZM290.677 87.896C292.085 87.896 293.323 87.5547 294.389 86.872C295.456 86.1893 296.224 85.1867 296.693 83.864V80.856H291.445C287.904 80.856 286.133 82.0293 286.133 84.376C286.133 85.4427 286.539 86.296 287.349 86.936C288.16 87.576 289.269 87.896 290.677 87.896ZM329.137 95.576C326.236 95.576 323.377 95.256 320.561 94.616C317.745 93.9333 315.484 93.0587 313.777 91.992L317.425 83.672C319.004 84.6533 320.881 85.4427 323.057 86.04C325.233 86.5947 327.388 86.872 329.521 86.872C331.484 86.872 332.87 86.68 333.681 86.296C334.534 85.8693 334.961 85.272 334.961 84.504C334.961 83.736 334.449 83.2027 333.425 82.904C332.444 82.5627 330.865 82.2427 328.689 81.944C325.916 81.6027 323.548 81.1547 321.585 80.6C319.665 80.0453 318.001 79.0213 316.593 77.528C315.185 76.0347 314.481 73.944 314.481 71.256C314.481 69.0373 315.142 67.0747 316.465 65.368C317.788 63.6187 319.708 62.2533 322.225 61.272C324.785 60.248 327.836 59.736 331.377 59.736C333.894 59.736 336.39 59.992 338.865 60.504C341.34 61.016 343.409 61.7413 345.073 62.68L341.425 70.936C338.353 69.2293 335.025 68.376 331.441 68.376C329.521 68.376 328.113 68.6107 327.217 69.08C326.321 69.5067 325.873 70.0827 325.873 70.808C325.873 71.6187 326.364 72.1947 327.345 72.536C328.326 72.8347 329.948 73.1547 332.209 73.496C335.068 73.9227 337.436 74.4133 339.313 74.968C341.19 75.5227 342.812 76.5467 344.177 78.04C345.585 79.4907 346.289 81.5387 346.289 84.184C346.289 86.36 345.628 88.3227 344.305 90.072C342.982 91.7787 341.02 93.1227 338.417 94.104C335.857 95.0853 332.764 95.576 329.137 95.576Z" fill="#F0F0F0"/>
</g>
<g filter="url(#filter2_d)">
<path d="M141.958 78.9062C141.958 76.4375 141.349 74.5 140.13 73.0938C138.911 71.6875 136.771 70.3594 133.708 69.1094C130.646 67.8594 127.818 66.5938 125.224 65.3125C122.63 64.0312 120.396 62.5469 118.521 60.8594C116.646 59.1719 115.208 57.2188 114.208 55C113.208 52.7812 112.708 50.0938 112.708 46.9375C112.708 41.6562 114.49 37.3125 118.052 33.9062C121.615 30.4688 126.365 28.4688 132.302 27.9062V18.0156H139.755V28.0938C145.474 28.9375 149.958 31.2969 153.208 35.1719C156.49 39.0156 158.13 43.9062 158.13 49.8438H142.286C142.286 46.5938 141.661 44.0938 140.411 42.3438C139.161 40.5938 137.38 39.7188 135.068 39.7188C133.005 39.7188 131.396 40.375 130.24 41.6875C129.115 42.9688 128.552 44.75 128.552 47.0312C128.552 49.3438 129.208 51.1875 130.521 52.5625C131.833 53.9062 133.943 55.2031 136.849 56.4531C139.755 57.6719 142.49 58.9531 145.052 60.2969C147.646 61.6094 149.88 63.1094 151.755 64.7969C153.63 66.4844 155.099 68.4531 156.161 70.7031C157.224 72.9531 157.755 75.6562 157.755 78.8125C157.755 84.1562 156.052 88.5156 152.646 91.8906C149.271 95.2656 144.661 97.2344 138.818 97.7969V107.219H131.365V97.75C124.552 97.0312 119.318 94.7031 115.661 90.7656C112.036 86.7969 110.224 81.5781 110.224 75.1094H126.021C126.021 78.6719 126.802 81.3906 128.365 83.2656C129.958 85.1094 132.208 86.0312 135.115 86.0312C137.24 86.0312 138.911 85.4062 140.13 84.1562C141.349 82.875 141.958 81.125 141.958 78.9062Z" fill="#8CFF47"/>
<path d="M136.625 78.9062C136.625 76.4375 136.016 74.5 134.797 73.0938C133.578 71.6875 131.438 70.3594 128.375 69.1094C125.312 67.8594 122.484 66.5938 119.891 65.3125C117.297 64.0312 115.062 62.5469 113.188 60.8594C111.312 59.1719 109.875 57.2188 108.875 55C107.875 52.7812 107.375 50.0938 107.375 46.9375C107.375 41.6562 109.156 37.3125 112.719 33.9062C116.281 30.4688 121.031 28.4688 126.969 27.9062V18.0156H134.422V28.0938C140.141 28.9375 144.625 31.2969 147.875 35.1719C151.156 39.0156 152.797 43.9062 152.797 49.8438H136.953C136.953 46.5938 136.328 44.0938 135.078 42.3438C133.828 40.5938 132.047 39.7188 129.734 39.7188C127.672 39.7188 126.062 40.375 124.906 41.6875C123.781 42.9688 123.219 44.75 123.219 47.0312C123.219 49.3438 123.875 51.1875 125.188 52.5625C126.5 53.9062 128.609 55.2031 131.516 56.4531C134.422 57.6719 137.156 58.9531 139.719 60.2969C142.312 61.6094 144.547 63.1094 146.422 64.7969C148.297 66.4844 149.766 68.4531 150.828 70.7031C151.891 72.9531 152.422 75.6562 152.422 78.8125C152.422 84.1562 150.719 88.5156 147.312 91.8906C143.938 95.2656 139.328 97.2344 133.484 97.7969V107.219H126.031V97.75C119.219 97.0312 113.984 94.7031 110.328 90.7656C106.703 86.7969 104.891 81.5781 104.891 75.1094H120.688C120.688 78.6719 121.469 81.3906 123.031 83.2656C124.625 85.1094 126.875 86.0312 129.781 86.0312C131.906 86.0312 133.578 85.4062 134.797 84.1562C136.016 82.875 136.625 81.125 136.625 78.9062Z" fill="#73E82E"/>
</g>
<defs>
<filter id="filter0_d" x="0.384003" y="27.8" width="68.192" height="75.2" filterUnits="userSpaceOnUse" color-interpolation-filters="sRGB">
<feFlood flood-opacity="0" result="BackgroundImageFix"/>
<feColorMatrix in="SourceAlpha" type="matrix" values="0 0 0 0 0 0 0 0 0 0 0 0 0 0 0 0 0 0 127 0"/>
<feOffset dy="4"/>
<feGaussianBlur stdDeviation="2"/>
<feColorMatrix type="matrix" values="0 0 0 0 0 0 0 0 0 0 0 0 0 0 0 0 0 0 0.25 0"/>
<feBlend mode="normal" in2="BackgroundImageFix" result="effect1_dropShadow"/>
<feBlend mode="normal" in="SourceGraphic" in2="effect1_dropShadow" result="shape"/>
</filter>
<filter id="filter1_d" x="47.904" y="43.544" width="302.385" height="60.032" filterUnits="userSpaceOnUse" color-interpolation-filters="sRGB">
<feFlood flood-opacity="0" result="BackgroundImageFix"/>
<feColorMatrix in="SourceAlpha" type="matrix" values="0 0 0 0 0 0 0 0 0 0 0 0 0 0 0 0 0 0 127 0"/>
<feOffset dy="4"/>
<feGaussianBlur stdDeviation="2"/>
<feColorMatrix type="matrix" values="0 0 0 0 0 0 0 0 0 0 0 0 0 0 0 0 0 0 0.25 0"/>
<feBlend mode="normal" in2="BackgroundImageFix" result="effect1_dropShadow"/>
<feBlend mode="normal" in="SourceGraphic" in2="effect1_dropShadow" result="shape"/>
</filter>
<filter id="filter2_d" x="100.891" y="18.0156" width="61.2396" height="97.2031" filterUnits="userSpaceOnUse" color-interpolation-filters="sRGB">
<feFlood flood-opacity="0" result="BackgroundImageFix"/>
<feColorMatrix in="SourceAlpha" type="matrix" values="0 0 0 0 0 0 0 0 0 0 0 0 0 0 0 0 0 0 127 0"/>
<feOffset dy="4"/>
<feGaussianBlur stdDeviation="2"/>
<feColorMatrix type="matrix" values="0 0 0 0 0 0 0 0 0 0 0 0 0 0 0 0 0 0 0.25 0"/>
<feBlend mode="normal" in2="BackgroundImageFix" result="effect1_dropShadow"/>
<feBlend mode="normal" in="SourceGraphic" in2="effect1_dropShadow" result="shape"/>
</filter>
</defs>
</svg>
